<svg width="216" height="239" viewBox="0 0 216 239" fill="none" xmlns="http://www.w3.org/2000/svg">
<path d="M81.9959 169.587C54.2863 183.415 40.7823 181.618 18 181.44V217H177V106.262C156.908 102.161 126.803 147.225 81.9959 169.587Z" fill="#5914AC" fill-opacity="0.6"/>
<path d="M88.5934 165.197C59.5715 154.423 40.7823 137.178 18 137V217H177V154.049C156.908 149.965 143.353 185.525 88.5934 165.197Z" fill="#5914AC" fill-opacity="0.6"/>
<path d="M24.589 181.525C43.6295 181.821 57.0613 182.031 81.9959 169.587C84.5571 168.308 87.0703 166.956 89.5363 165.543C124.283 178.144 142.262 168.074 155.991 160.384C163.588 156.129 169.884 152.603 177 154.049V217H18V181.44C20.2815 181.458 22.47 181.492 24.589 181.525Z" fill="#5914AC" fill-opacity="0.6"/>
<path fill-rule="evenodd" clip-rule="evenodd" d="M151.016 36.3956C151.016 38.0525 149.673 39.3956 148.016 39.3956H145.764V39.4128C145.546 39.4015 145.327 39.3958 145.107 39.3958C138.217 39.3958 132.632 44.9812 132.632 51.8711C132.632 58.7376 138.179 64.3084 145.037 64.3462H145.177C145.374 64.3451 145.569 64.3394 145.764 64.3293V64.3462H212.363C214.02 64.3462 215.363 65.6893 215.363 67.3462V236C215.363 237.657 214.02 239 212.363 239H2.99999C1.34314 239 0 237.657 0 236V67.3462C0 65.6893 1.34315 64.3462 3 64.3462H69.5989V64.3293C69.7998 64.3397 70.0021 64.3454 70.2054 64.3462H70.305C77.172 64.3193 82.7305 58.7443 82.7305 51.871C82.7305 44.9811 77.1451 39.3957 70.2552 39.3957C70.0351 39.3957 69.8162 39.4014 69.5989 39.4127V39.3956H67.3462C65.6893 39.3956 64.3462 38.0525 64.3462 36.3956V3C64.3462 1.34315 65.6893 0 67.3462 0H148.016C149.673 0 151.016 1.34314 151.016 3V36.3956ZM172.967 103.742C174.624 103.742 175.967 105.085 175.967 106.742V196.604C175.967 198.261 174.624 199.604 172.967 199.604H42.3956C40.7388 199.604 39.3956 198.261 39.3956 196.604V106.742C39.3956 105.085 40.7388 103.742 42.3956 103.742H172.967Z" fill="#5914AC"/>
</svg>
