<svg width="123" height="41" viewBox="0 0 123 41" fill="none" xmlns="http://www.w3.org/2000/svg">
<path d="M13.7659 28.7231C9.21644 30.9936 6.9993 30.6985 3.25879 30.6692V36.5077H29.3641V18.3262C26.0654 17.6528 21.1226 25.0517 13.7659 28.7231Z" fill="#3D0087" fill-opacity="0.6"/>
<path d="M14.8491 28.0025C10.0842 26.2336 6.9993 23.4022 3.25879 23.373V36.5078H29.3642V26.1723C26.0654 25.5017 23.8398 31.3401 14.8491 28.0025Z" fill="#3D0087" fill-opacity="0.6"/>
<path d="M4.3406 30.6834C7.46676 30.7321 9.67205 30.7664 13.7659 28.7233C14.1864 28.5135 14.5991 28.2914 15.004 28.0594C20.7088 30.1283 23.6606 28.475 25.9148 27.2124C27.1621 26.5138 28.1958 25.9349 29.3641 26.1723V36.5079H3.25879V30.6694C3.63338 30.6724 3.99269 30.678 4.3406 30.6834Z" fill="#3D0087" fill-opacity="0.6"/>
<path fill-rule="evenodd" clip-rule="evenodd" d="M25.0983 6.85524C25.0983 7.12727 24.8778 7.34779 24.6057 7.34779H24.2359V7.35061C24.2002 7.34876 24.1642 7.34782 24.128 7.34782C22.9968 7.34782 22.0798 8.26486 22.0798 9.39607C22.0798 10.5235 22.9906 11.4381 24.1165 11.4443H24.1395C24.1718 11.4441 24.2039 11.4432 24.2359 11.4415V11.4443H35.1704C35.4424 11.4443 35.663 11.6648 35.663 11.9368V39.6272C35.663 39.8992 35.4424 40.1198 35.1704 40.1198H0.796264C0.524234 40.1198 0.303711 39.8992 0.303711 39.6272V11.9368C0.303711 11.6648 0.524235 11.4443 0.796265 11.4443H11.7308V11.4415C11.7638 11.4432 11.797 11.4442 11.8304 11.4443H11.8467C12.9742 11.4399 13.8868 10.5245 13.8868 9.39606C13.8868 8.26484 12.9698 7.34781 11.8385 7.34781C11.8024 7.34781 11.7665 7.34874 11.7308 7.35059V7.34779H11.3609C11.0889 7.34779 10.8684 7.12727 10.8684 6.85524V1.37219C10.8684 1.10016 11.0889 0.879639 11.3609 0.879639H24.6057C24.8778 0.879639 25.0983 1.10016 25.0983 1.37219V6.85524ZM28.7022 17.9124C28.9743 17.9124 29.1948 18.133 29.1948 18.405V33.1591C29.1948 33.4311 28.9743 33.6516 28.7022 33.6516H7.26442C6.99239 33.6516 6.77187 33.4311 6.77187 33.1591V18.405C6.77187 18.133 6.99239 17.9124 7.26442 17.9124H28.7022Z" fill="#3D0087"/>
<path d="M115.267 35.0852C113.765 35.0852 112.428 34.7707 111.257 34.1416C110.104 33.5125 109.186 32.6563 108.505 31.5728C107.841 30.472 107.509 29.2225 107.509 27.8246C107.509 26.4092 107.841 25.1597 108.505 24.0763C109.186 22.9754 110.104 22.1192 111.257 21.5076C112.428 20.8785 113.765 20.564 115.267 20.564C116.753 20.564 118.081 20.8785 119.252 21.5076C120.422 22.1192 121.34 22.9667 122.004 24.0501C122.668 25.1335 123 26.3917 123 27.8246C123 29.2225 122.668 30.472 122.004 31.5728C121.34 32.6563 120.422 33.5125 119.252 34.1416C118.081 34.7707 116.753 35.0852 115.267 35.0852ZM115.267 31.7301C115.949 31.7301 116.561 31.5728 117.102 31.2583C117.644 30.9438 118.072 30.4982 118.387 29.9215C118.701 29.3274 118.858 28.6284 118.858 27.8246C118.858 27.0033 118.701 26.3043 118.387 25.7277C118.072 25.151 117.644 24.7054 117.102 24.3909C116.561 24.0763 115.949 23.9191 115.267 23.9191C114.586 23.9191 113.974 24.0763 113.433 24.3909C112.891 24.7054 112.454 25.151 112.122 25.7277C111.807 26.3043 111.65 27.0033 111.65 27.8246C111.65 28.6284 111.807 29.3274 112.122 29.9215C112.454 30.4982 112.891 30.9438 113.433 31.2583C113.974 31.5728 114.586 31.7301 115.267 31.7301Z" fill="#ffffff"/>
<path d="M99.3081 34.8755V20.7737H103.214V24.7578L102.663 23.6045C103.083 22.6085 103.755 21.8571 104.681 21.3503C105.608 20.8261 106.735 20.564 108.063 20.564V24.3384C107.888 24.321 107.731 24.3122 107.591 24.3122C107.451 24.2948 107.303 24.286 107.145 24.286C106.027 24.286 105.118 24.6093 104.419 25.2558C103.738 25.8849 103.397 26.8722 103.397 28.2178V34.8755H99.3081Z" fill="#ffffff"/>
<path d="M91.6051 35.0852C89.9974 35.0852 88.582 34.7707 87.3588 34.1416C86.1531 33.5125 85.2182 32.6563 84.5541 31.5728C83.8901 30.472 83.5581 29.2225 83.5581 27.8246C83.5581 26.4092 83.8814 25.1597 84.5279 24.0763C85.192 22.9754 86.0919 22.1192 87.2277 21.5076C88.3636 20.8785 89.6479 20.564 91.0808 20.564C92.4613 20.564 93.702 20.861 94.8029 21.4552C95.9213 22.0318 96.8037 22.8706 97.4503 23.9715C98.0968 25.0549 98.4201 26.3567 98.4201 27.877C98.4201 28.0343 98.4114 28.2178 98.3939 28.4274C98.3764 28.6197 98.3589 28.8032 98.3415 28.9779H86.887V26.5926H96.1921L94.6194 27.3004C94.6194 26.5664 94.4709 25.9286 94.1738 25.3869C93.8767 24.8452 93.4661 24.4258 92.9419 24.1287C92.4176 23.8142 91.806 23.6569 91.1071 23.6569C90.4081 23.6569 89.7877 23.8142 89.246 24.1287C88.7218 24.4258 88.3111 24.8539 88.0141 25.4131C87.717 25.9548 87.5685 26.6014 87.5685 27.3528V27.9819C87.5685 28.7507 87.7345 29.4322 88.0665 30.0264C88.416 30.603 88.8965 31.0486 89.5081 31.3632C90.1372 31.6602 90.8711 31.8087 91.7099 31.8087C92.4613 31.8087 93.1166 31.6952 93.6758 31.468C94.2524 31.2408 94.7767 30.9001 95.2485 30.4457L97.4241 32.8048C96.7775 33.5387 95.9649 34.1066 94.9864 34.5085C94.0078 34.893 92.8807 35.0852 91.6051 35.0852Z" fill="#ffffff"/>
<path d="M67.7699 20.564C68.8883 20.564 69.8843 20.7911 70.7581 21.2455C71.6492 21.6823 72.3482 22.3638 72.855 23.29C73.3617 24.1986 73.6151 25.3694 73.6151 26.8023V34.8755H69.5261V27.4314C69.5261 26.2956 69.2727 25.4568 68.766 24.9151C68.2767 24.3734 67.5777 24.1025 66.669 24.1025C66.0225 24.1025 65.4371 24.2423 64.9129 24.5219C64.4061 24.784 64.0042 25.1947 63.7071 25.7539C63.4275 26.313 63.2877 27.0295 63.2877 27.9032V34.8755H59.1987V20.7737H63.1043V24.6792L62.3703 23.4997C62.8771 22.556 63.6023 21.8309 64.5459 21.3241C65.4895 20.8173 66.5642 20.564 67.7699 20.564Z" fill="#3D0087"/>
<path d="M53.1489 34.8756V20.7738H57.2379V34.8756H53.1489ZM55.1934 18.8079C54.442 18.8079 53.8304 18.5895 53.3586 18.1526C52.8868 17.7157 52.6509 17.174 52.6509 16.5275C52.6509 15.8809 52.8868 15.3392 53.3586 14.9024C53.8304 14.4655 54.442 14.2471 55.1934 14.2471C55.9448 14.2471 56.5564 14.4568 57.0282 14.8762C57.5 15.2781 57.7359 15.8023 57.7359 16.4488C57.7359 17.1303 57.5 17.6983 57.0282 18.1526C56.5739 18.5895 55.9623 18.8079 55.1934 18.8079Z" fill="#3D0087"/>
<path fill-rule="evenodd" clip-rule="evenodd" d="M45.4803 33.8266C46.4065 34.6654 47.6996 35.0848 49.3596 35.0848C49.9887 35.0848 50.5916 35.0149 51.1682 34.8751C51.324 34.8338 51.4739 34.7878 51.6176 34.7369V31.2794C51.1633 31.6288 50.5828 31.8345 49.9363 31.8345C49.3946 31.8345 48.9665 31.6773 48.6519 31.3627C48.3374 31.0307 48.1801 30.5676 48.1801 29.9735V24.2332H51.6925V21.0878H48.1801V17.6541H44.0911V21.0878H41.9155V24.2332H44.0911V30.0259C44.0911 31.7035 44.5542 32.9704 45.4803 33.8266Z" fill="#3D0087"/>
<path fill-rule="evenodd" clip-rule="evenodd" d="M77.3734 33.8266C78.2995 34.6654 79.5926 35.0848 81.2527 35.0848C81.8818 35.0848 82.4846 35.0149 83.0613 34.8751C83.223 34.8323 83.3783 34.7843 83.5271 34.7311V31.2794C83.0728 31.6288 82.4758 31.8345 81.8294 31.8345C81.2876 31.8345 80.8595 31.6773 80.545 31.3627C80.2304 31.0307 80.0732 30.5676 80.0732 29.9735V24.2332H83.5855V21.0878H80.0732V17.6541H75.9842V21.0878H73.8086V24.2332H75.9842V30.0259C75.9842 31.7035 76.4472 32.9704 77.3734 33.8266Z" fill="#3D0087"/>
</svg>
